<svg xmlns="http://www.w3.org/2000/svg" width="675.931" height="373.877" viewBox="0 0 675.931 373.877">
  <g id="Group_3846" data-name="Group 3846" transform="translate(678.931 -20726.865)">
    <g id="Group_3849" data-name="Group 3849">
      <g id="Group_3848" data-name="Group 3848">
        <g id="Group_3847" data-name="Group 3847">
          <g id="Group_3639" data-name="Group 3639" transform="translate(-678.931 20866.162)">
            <path id="Path_2992" data-name="Path 2992" d="M-757.6,416.237c-33.629,3.4-63.255-36.459-50.305-67.682s68.183-35.522,84.653-14.1C-697.324,368.18-723.97,412.841-757.6,416.237Z" transform="translate(811.014 -321.16)" fill="#f1d1cc" style="mix-blend-mode: multiply;isolation: isolate"/>
            <path id="Path_2993" data-name="Path 2993" d="M-692.966,416.237c-33.632,3.4-63.258-36.459-50.305-67.682s68.18-35.522,84.65-14.1C-632.691,368.18-659.337,412.841-692.966,416.237Z" transform="translate(908.224 -321.16)" fill="#f1d1cc" style="mix-blend-mode: multiply;isolation: isolate"/>
          </g>
          <path id="Path_2995" data-name="Path 2995" d="M-985.723,926.269c-2.709-22.929-8.13-45.059-19.147-65.529-9.212-17.106-21.6-31.388-38.141-41.823l-.012,0c-64.475-40.652-128.027,1.515-184.966,33.818l-.009,0c-73.979,41.957-164.284,48.549-146.472,157.609,3.194,19.523,10.978,37.3,21.974,53.522,5.252,7.76,11.93,14.606,18.346,21.513,3.968,4.266,8.6,7.937,13.046,11.741,27.257,23.306,53.8,42.32,45.62,78.934,0,0,6.647-.487,6.647-.491,13.853-42.039,61.993-34.529,97.349-33.043C-1022.336,1148.795-971.056,1050.307-985.723,926.269Z" transform="translate(980.318 19924.688)" fill="#416e96" style="mix-blend-mode: multiply;isolation: isolate"/>
          <path id="Path_2997" data-name="Path 2997" d="M-628.331,416.237c-33.633,3.4-63.255-36.459-50.306-67.682s68.183-35.522,84.654-14.1C-568.056,368.18-594.7,412.841-628.331,416.237Z" transform="translate(347.993 20545.002)" fill="#f6f5ed"/>
        </g>
      </g>
    </g>
  </g>
</svg>
