<?xml version="1.0" encoding="UTF-8"?>
<svg id="Layer_2" data-name="Layer 2" xmlns="http://www.w3.org/2000/svg" viewBox="0 0 905.36 836.92">
  <defs>
    <style>
      .cls-1 {
        fill: #f6f5ed;
      }

      .cls-2 {
        fill: #565656;
      }

      .cls-3 {
        fill: #d6d6d6;
      }

      .cls-4 {
        fill: #fffeff;
      }

      .cls-5 {
        fill: #e3c241;
      }
    </style>
  </defs>
  <g id="fidgetspinner">
    <path class="cls-5" d="m136.37,477.12c65.44-24.6,91.82-4.39,126.71-30.63,45.3-34.07,46.5-102.46,46.54-111.87.24-59.26-33.83-68.23-39.4-132.33-1.3-14.96-5.77-77.23,35.82-131.7C357.92,2.64,440.76.11,448.27,0c7-.1,88.09.09,142.24,64.27,56.39,66.84,41.33,153.05,38.98,166.47-10.39,59.47-39.68,70.21-35.82,120.11,2.89,37.37,22.86,77.17,54.79,101.15,43.81,32.9,74.26,9.08,134.73,33.97,13.08,5.39,93.05,40.01,116.03,120.91,18.46,64.98-5.77,138.96-57.95,184.38-44.75,38.96-106.83,54.1-159.09,41.09-45.83-11.41-79.37-43.28-106.77-69.31-41.51-39.44-42.19-58.73-74.41-72.98-33.66-14.89-75.27-12.56-107.5,2.16-52.74,24.1-45.52,65.45-101.15,104.31-9.18,6.41-58.54,39.62-123.27,34.77-55.66-4.17-125.98-36.73-155.93-107.47-32.43-76.58.72-154.79,39.41-195.5,29.14-30.65,65.49-44.32,83.82-51.21Z"/>
    <g>
      <circle class="cls-3" cx="455.34" cy="180.17" r="138.33"/>
      <circle class="cls-2" cx="455.34" cy="180.17" r="125.53"/>
      <circle class="cls-3" cx="455.34" cy="180.17" r="76.54"/>
      <circle class="cls-1" cx="455.34" cy="180.17" r="54.79"/>
    </g>
    <g>
      <circle class="cls-3" cx="726.8" cy="657.45" r="138.33"/>
      <circle class="cls-2" cx="726.8" cy="657.45" r="125.53"/>
      <circle class="cls-3" cx="726.8" cy="657.45" r="76.54"/>
      <circle class="cls-1" cx="726.8" cy="657.45" r="54.79"/>
    </g>
    <g>
      <circle class="cls-3" cx="178.69" cy="657.45" r="138.33"/>
      <circle class="cls-2" cx="178.69" cy="657.45" r="125.53"/>
      <circle class="cls-3" cx="178.69" cy="657.45" r="76.54"/>
      <circle class="cls-1" cx="178.69" cy="657.45" r="54.79"/>
    </g>
    <circle class="cls-2" cx="449.4" cy="501.52" r="139.08"/>
    <circle class="cls-4" cx="449.4" cy="500.52" r="134.79"/>
    <circle class="cls-5" cx="449.4" cy="500.52" r="130.49"/>
  </g>
</svg>