<?xml version="1.0" encoding="UTF-8"?>
<svg id="Layer_2" data-name="Layer 2" xmlns="http://www.w3.org/2000/svg" viewBox="0 0 905.25 905.17">
  <defs>
    <style>
      .cls-1 {
        fill: #f6f5ed;
      }

      .cls-2 {
        fill: #565656;
      }

      .cls-3 {
        fill: #d6d6d6;
      }

      .cls-4 {
        fill: #fffeff;
      }

      .cls-5 {
        fill: #e3c241;
      }

      .cls-6 {
        fill: none;
      }
    </style>
  </defs>
  <g id="fidgetspinner">
    <path class="cls-5" d="m134.5,547.79c65.18-25.27,91.77-5.33,126.39-31.93,44.95-34.53,45.44-102.93,45.39-112.34-.37-59.26-34.53-67.88-40.76-131.91-1.45-14.95-6.56-77.16,34.47-132.06,51.18-68.48,134-71.87,141.5-72.05,7-.17,88.09-.81,142.89,62.81,57.07,66.26,42.9,152.62,40.69,166.06-9.78,59.58-38.96,70.61-34.59,120.47,3.27,37.34,23.65,76.93,55.82,100.58,44.15,32.45,74.35,8.32,135.07,32.59,13.14,5.25,93.46,39.05,117.26,119.71,19.12,64.78-4.35,139.01-56.05,184.97-44.35,39.42-106.27,55.19-158.66,42.72-45.94-10.94-79.81-42.46-107.48-68.21-41.91-39.01-42.79-58.29-75.15-72.21-33.81-14.54-75.39-11.79-107.48,3.27-52.49,24.64-44.84,65.92-100.07,105.34-9.11,6.51-58.13,40.22-122.91,36.03-55.7-3.6-126.35-35.44-157.03-105.86-33.21-76.24-.87-154.79,37.4-195.89,28.82-30.95,65.04-44.99,83.29-52.07Z"/>
    <g>
      <circle class="cls-3" cx="450.41" cy="247.58" r="138.33"/>
      <circle class="cls-2" cx="450.41" cy="247.58" r="125.53"/>
      <circle class="cls-3" cx="450.41" cy="247.58" r="76.54"/>
      <circle class="cls-1" cx="450.41" cy="247.58" r="54.79"/>
    </g>
    <g>
      <circle class="cls-3" cx="726.75" cy="722.05" r="138.33"/>
      <circle class="cls-2" cx="726.75" cy="722.05" r="125.53"/>
      <circle class="cls-3" cx="726.75" cy="722.05" r="76.54"/>
      <circle class="cls-1" cx="726.75" cy="722.05" r="54.79"/>
    </g>
    <g>
      <circle class="cls-3" cx="178.67" cy="727.68" r="138.33"/>
      <circle class="cls-2" cx="178.67" cy="727.68" r="125.53"/>
      <circle class="cls-3" cx="178.67" cy="727.68" r="76.54"/>
      <circle class="cls-1" cx="178.67" cy="727.68" r="54.79"/>
    </g>
    <circle class="cls-2" cx="447.76" cy="568.97" r="139.08"/>
    <circle class="cls-4" cx="447.75" cy="567.97" r="134.79"/>
    <circle class="cls-5" cx="447.75" cy="567.97" r="130.49"/>
  </g>
  <g id="Layer_10" data-name="Layer 10">
    <rect class="cls-6" width="905.17" height="905.17"/>
  </g>
</svg>