<?xml version="1.0" encoding="UTF-8"?>
<svg id="Layer_2" data-name="Layer 2" xmlns="http://www.w3.org/2000/svg" viewBox="0 0 584.15 535.87">
  <defs>
    <style>
      .cls-1 {
        letter-spacing: 0em;
      }

      .cls-2 {
        letter-spacing: 0em;
      }

      .cls-3 {
        letter-spacing: -.05em;
      }

      .cls-4, .cls-5, .cls-6 {
        isolation: isolate;
      }

      .cls-7 {
        letter-spacing: -.03em;
      }

      .cls-8 {
        letter-spacing: -.02em;
      }

      .cls-9 {
        letter-spacing: 0em;
      }

      .cls-10 {
        letter-spacing: -.03em;
      }

      .cls-11 {
        letter-spacing: -.04em;
      }

      .cls-12 {
        letter-spacing: -.02em;
      }

      .cls-13 {
        letter-spacing: 0em;
      }

      .cls-14 {
        letter-spacing: -.05em;
      }

      .cls-15 {
        letter-spacing: -.01em;
      }

      .cls-5 {
        font-family: Kanit-Medium, Kanit;
        font-size: 30px;
        font-weight: 500;
      }

      .cls-5, .cls-6 {
        fill: #fff;
      }

      .cls-16 {
        letter-spacing: -.02em;
      }

      .cls-17 {
        letter-spacing: -.03em;
      }

      .cls-18 {
        letter-spacing: 0em;
      }

      .cls-19 {
        letter-spacing: -.04em;
      }

      .cls-20 {
        fill: #e3c241;
      }

      .cls-6 {
        font-family: Kanit-Regular, Kanit;
        font-size: 25px;
      }

      .cls-21 {
        letter-spacing: 0em;
      }

      .cls-22 {
        letter-spacing: -.06em;
      }

      .cls-23 {
        letter-spacing: -.02em;
      }

      .cls-24 {
        letter-spacing: -.02em;
      }

      .cls-25 {
        letter-spacing: -.02em;
      }
    </style>
  </defs>
  <g id="Layer_1-2" data-name="Layer 1">
    <g>
      <path id="Path_27" data-name="Path 27" class="cls-20" d="m493.87,529.36c-107.88,37.15-321.79-93.09-433.19-177.3-16.72-12.64-20.77,4.6-60.69,21.95,15.09-35.96,45.6-58.24,40.4-73.33C9.08,209.71,90.65,71.05,239.85,19.68c149.2-51.37,309.54,3.99,340.86,94.96,15.19,44.12-24.46,111.64-29.93,195.26-5.8,88.66,19.94,193.01-56.9,219.47Z"/>
      <g id="Skaf_en_fidgetspinner_-_eller_lignende_Når_jeg_er_ængstelig_fidgetter_jeg_meget_hvilket_ødelægger_mine_fingre_og_negle._Så_er_det_altså_bedre_at_sidde_og_lade_det_gå_udover_sådan_et_stykke_plastik._" data-name="Skaf en fidgetspinner - eller lignende Når jeg er ængstelig fidgetter jeg meget hvilket ødelægger mine fingre og negle. Så er det altså bedre at sidde og lade det gå udover sådan et stykke plastik. " class="cls-4">
        <text class="cls-5" transform="translate(155.64 114.99)"><tspan x="0" y="0">S</tspan><tspan class="cls-3" x="16.65" y="0">k</tspan><tspan x="31.92" y="0">af en fid</tspan><tspan class="cls-21" x="140.85" y="0">g</tspan><tspan x="157.41" y="0">ets</tspan><tspan class="cls-25" x="198.69" y="0">p</tspan><tspan x="215.79" y="0">in</tspan><tspan class="cls-16" x="242.22" y="0">n</tspan><tspan x="259.35" y="0">er</tspan></text>
        <text class="cls-5" transform="translate(155.64 159.99)"><tspan x="0" y="0">- e</tspan><tspan class="cls-24" x="36.66" y="0">l</tspan><tspan x="44.85" y="0">ler </tspan><tspan class="cls-17" x="87.84" y="0">l</tspan><tspan x="95.73" y="0">i</tspan><tspan class="cls-10" x="104.55" y="0">g</tspan><tspan class="cls-8" x="120.66" y="0">n</tspan><tspan x="137.79" y="0">e</tspan><tspan class="cls-16" x="154.05" y="0">n</tspan><tspan class="cls-21" x="171.18" y="0">d</tspan><tspan x="188.58" y="0">e</tspan></text>
        <text class="cls-6" transform="translate(155.64 199.99)"><tspan x="0" y="0">&quot;Når jeg er æn</tspan><tspan class="cls-12" x="158.95" y="0">g</tspan><tspan class="cls-15" x="172.17" y="0">s</tspan><tspan x="183.4" y="0">te</tspan><tspan class="cls-7" x="205.8" y="0">l</tspan><tspan x="211.92" y="0">i</tspan><tspan class="cls-7" x="219.05" y="0">g</tspan><tspan x="232.02" y="0">, fid</tspan><tspan class="cls-9" x="270.85" y="0">g</tspan><tspan class="cls-13" x="284.45" y="0">etter </tspan></text>
        <text class="cls-6" transform="translate(155.64 237.99)"><tspan x="0" y="0">jeg </tspan><tspan class="cls-9" x="40.72" y="0">m</tspan><tspan x="61.87" y="0">e</tspan><tspan class="cls-9" x="75.3" y="0">g</tspan><tspan x="88.9" y="0">et, </tspan><tspan class="cls-10" x="122.32" y="0">h</tspan><tspan class="cls-7" x="136.15" y="0">v</tspan><tspan x="149.72" y="0">il</tspan><tspan class="cls-22" x="163.85" y="0">k</tspan><tspan x="175.65" y="0">et ø</tspan><tspan class="cls-9" x="218.32" y="0">d</tspan><tspan class="cls-1" x="232.62" y="0">elæ</tspan><tspan class="cls-15" x="275.07" y="0">g</tspan><tspan class="cls-9" x="288.55" y="0">g</tspan><tspan x="302.15" y="0">er </tspan></text>
        <text class="cls-6" transform="translate(155.64 275.99)"><tspan x="0" y="0">mi</tspan><tspan class="cls-9" x="28.52" y="0">n</tspan><tspan x="42.72" y="0">e fin</tspan><tspan class="cls-10" x="89.6" y="0">g</tspan><tspan class="cls-23" x="102.82" y="0">r</tspan><tspan x="111.3" y="0">e og </tspan><tspan class="cls-2" x="164.6" y="0">n</tspan><tspan class="cls-1" x="178.8" y="0">egle. </tspan><tspan class="cls-15" x="236.72" y="0">S</tspan><tspan x="250.22" y="0">å er </tspan><tspan class="cls-9" x="297.79" y="0">d</tspan><tspan x="312.09" y="0">et </tspan></text>
        <text class="cls-6" transform="translate(155.64 313.99)"><tspan x="0" y="0">a</tspan><tspan class="cls-10" x="13.67" y="0">l</tspan><tspan class="cls-13" x="20.05" y="0">t</tspan><tspan class="cls-15" x="29.02" y="0">s</tspan><tspan class="cls-13" x="40.25" y="0">å bed</tspan><tspan class="cls-23" x="102.2" y="0">r</tspan><tspan x="110.67" y="0">e at si</tspan><tspan class="cls-9" x="176.97" y="0">dd</tspan><tspan x="205.57" y="0">e og la</tspan><tspan class="cls-9" x="279.55" y="0">d</tspan><tspan class="cls-13" x="293.85" y="0">e </tspan><tspan class="cls-9" x="313.02" y="0">d</tspan><tspan x="327.32" y="0">et </tspan></text>
        <text class="cls-6" transform="translate(155.64 351.99)"><tspan class="cls-11" x="0" y="0">g</tspan><tspan class="cls-13" x="12.85" y="0">å u</tspan><tspan class="cls-9" x="46.72" y="0">d</tspan><tspan class="cls-14" x="61.02" y="0">ov</tspan><tspan x="87.25" y="0">er </tspan><tspan class="cls-15" x="115.4" y="0">s</tspan><tspan x="126.62" y="0">å</tspan><tspan class="cls-18" x="140.3" y="0">d</tspan><tspan x="154.72" y="0">an et </tspan><tspan class="cls-15" x="216.75" y="0">s</tspan><tspan class="cls-19" x="227.97" y="0">t</tspan><tspan class="cls-13" x="235.82" y="0">yk</tspan><tspan class="cls-22" x="264.2" y="0">k</tspan><tspan x="276" y="0">e </tspan></text>
        <text class="cls-6" transform="translate(155.64 389.99)"><tspan x="0" y="0">pla</tspan><tspan class="cls-15" x="35.22" y="0">s</tspan><tspan class="cls-13" x="46.45" y="0">tik.”</tspan></text>
      </g>
    </g>
  </g>
</svg>