<svg xmlns="http://www.w3.org/2000/svg" width="721.951" height="342.967" viewBox="0 0 721.951 342.967">
  <g id="Group_3865" data-name="Group 3865" transform="translate(-5196.516 -21569.666)">
    <g id="Group_3864" data-name="Group 3864">
      <g id="Group_3785" data-name="Group 3785" transform="translate(5738.896 21609.885)" style="isolation: isolate">
        <g id="Group_3373" data-name="Group 3373" transform="translate(28.729)">
          <path id="Path_2147" data-name="Path 2147" d="M189.915,510.661c4.683-54.4,77.807-60.082,98.183-9.369a48.1,48.1,0,0,1,3.439,22.173c-4.3,47.964-71.041,56-94.724,18.182C191.049,532.446,188.984,521.477,189.915,510.661Z" transform="translate(-189.7 -466.358)" fill="#439e99"/>
        </g>
        <path id="Path_2571" data-name="Path 2571" d="M329.869,624.628c-1.961,6.487-53.117,8.409-93.653,8.165-39-.234-58.313.006-60.567-17.4-2.174-16.778-8.189-62.862,24.565-78.676s98.682-10.445,114.3,8.59C329.942,564.114,338.438,596.292,329.869,624.628Z" transform="translate(-173.774 -420.866)" fill="#439e99"/>
      </g>
      <g id="Group_3786" data-name="Group 3786" transform="translate(5243.39 21599.143)" style="isolation: isolate">
        <g id="Group_3373-2" data-name="Group 3373" transform="translate(29.288)">
          <path id="Path_2147-2" data-name="Path 2147" d="M189.919,511.523c4.775-55.458,79.322-61.251,100.095-9.551a49.036,49.036,0,0,1,3.506,22.6c-4.389,48.9-72.425,57.086-96.569,18.536C191.076,533.733,188.97,522.55,189.919,511.523Z" transform="translate(-189.7 -466.358)" fill="#c7d3de"/>
        </g>
        <path id="Path_2571-2" data-name="Path 2571" d="M332.909,622.515c-2,6.346-54.152,8.227-95.476,7.988-39.756-.229-59.449.006-61.746-17.021-2.216-16.413-8.348-61.495,25.044-76.966s100.6-10.218,116.523,8.4C332.983,563.317,341.644,594.794,332.909,622.515Z" transform="translate(-173.774 -418.791)" fill="#c7d3de"/>
      </g>
      <path id="Path_3206" data-name="Path 3206" d="M57.762,0c31.9,0,11.126,58.855,11.126,90.009s20.775,22.811-11.126,22.811S0,87.565,0,56.41,25.861,0,57.762,0Z" transform="translate(5598.762 21626.164) rotate(64)" fill="#aa6068"/>
      <path id="Path_3207" data-name="Path 3207" d="M0,0C37.214,39.545,55.511,44.457,98.735,59.892" transform="translate(5498.45 21739.941) rotate(-71)" fill="none" stroke="#aa6068" stroke-linecap="round" stroke-width="5"/>
      <ellipse id="Ellipse_5" data-name="Ellipse 5" cx="25.832" cy="40.183" rx="25.832" ry="40.183" transform="translate(5829.438 21569.666)" fill="#439e99"/>
      <ellipse id="Ellipse_6" data-name="Ellipse 6" cx="51.664" cy="33.008" rx="51.664" ry="33.008" transform="translate(5766.293 21609.854)" fill="#439e99"/>
      <path id="Path_3208" data-name="Path 3208" d="M0,81.81C36.742,70.144,34.43,54.657,34.641,39.62,34.9,21.208,42.565,5.37,82.211,0c9,50-9.2,76.577-63.3,81.215C13.867,81.651,7.178,81.881,0,81.81Z" transform="translate(5206.488 21627.369) rotate(7)" fill="#c7d3de"/>
      <ellipse id="Ellipse_7" data-name="Ellipse 7" cx="348.333" cy="61.5" rx="348.333" ry="61.5" transform="translate(5221.802 21760.332)" fill="#fff"/>
      <g id="Group_3787" data-name="Group 3787" transform="translate(5490.438 21666.656)" style="isolation: isolate">
        <g id="Group_3373-3" data-name="Group 3373" transform="translate(31.635)">
          <path id="Path_2147-3" data-name="Path 2147" d="M189.936,515.143c5.157-59.9,85.679-66.16,108.116-10.317a52.968,52.968,0,0,1,3.787,24.416c-4.74,52.816-78.229,61.661-104.308,20.022C191.186,539.133,188.911,527.054,189.936,515.143Z" transform="translate(-189.7 -466.358)" fill="#aa6068"/>
        </g>
        <path id="Path_2571-3" data-name="Path 2571" d="M345.662,646.07c-2.159,7.918-58.491,10.264-103.128,9.966-42.942-.286-64.213.008-66.694-21.237-2.394-20.479-9.017-76.729,27.051-96.032s108.666-12.75,125.861,10.485C345.741,572.208,355.1,611.483,345.662,646.07Z" transform="translate(-173.774 -410.085)" fill="#aa6068"/>
      </g>
    </g>
  </g>
</svg>
