<?xml version="1.0" encoding="UTF-8"?>
<svg id="Layer_2" data-name="Layer 2" xmlns="http://www.w3.org/2000/svg" viewBox="0 0 569.91 796.98">
  <defs>
    <style>
      .cls-1 {
        fill: #fff;
      }

      .cls-2 {
        fill: #e72860;
      }

      .cls-3 {
        fill: none;
        stroke: #91193c;
        stroke-miterlimit: 10;
        stroke-width: 2px;
      }

      .cls-4 {
        fill: #ad6569;
      }

      .cls-5 {
        fill: #91193c;
      }
    </style>
  </defs>
  <g id="høretelefoner">
    <path class="cls-5" d="m1.65,592.85c-1.62,2.18-3.55,16.44,2.29,37.21,6.93,24.62,18.05,51.34,43.87,74.41,18.94,16.93,56.08,31.65,57.9,26.74,7.61-20.56-94.14-151.69-104.06-138.35Z"/>
    <path class="cls-5" d="m105.18,417.22c-1.31-93.77,8.47-104.42,9.84-113.45,11.8-78.04,73.6-161.49,87.87-175.09,20-19.06,42.59-40.59,79.35-48.53,40.49-8.74,91.24-.43,121.97,28.85,9.01,8.58,16.91,19.53,17.65,18.96,1.13-.87-15.43-27.77-34.96-49.39-19.69-21.79-53.29-58.99-105.97-66.63C206.9,1.23,150.27,56.85,141.9,65.07c-3.8,3.74-12.76,12.88-27.12,34.14-40.32,59.69-57.88,118.2-66,149.48-28.96,111.57-27.2,221.26-15.93,223.08,2.01.32,2.46-3.09,13.3-15.21,5.97-6.67,17.37-19.26,32.13-28.2,14.01-8.49,27-3.1,26.89-11.15Z"/>
    <path class="cls-2" d="m67.94,435.57c-13.87.28-26.44,22.02-36.74,39.85-5.43,9.39-10.48,20.87-17.26,49.7-8.62,36.65-12.93,54.98-12.22,71.63,2.9,67.79,60.28,120.92,91.06,130.49,2.11.66,8.26,2.4,17.77,5.55,26.41,8.75,32.62,13.05,44.42,16.66,26.03,7.95,59.5,6.49,63.51-4.26,2.86-7.67-9.74-18.78-13.57-22.37-64.92-60.88-91.8-288.17-136.99-287.24Z"/>
    <path class="cls-1" d="m12.82,530.03c1.07.49,2.18,4.59,2.57,11.46.7,12.46,1.04,24.99,3.66,37.24,4.77,22.23,12.7,43.77,23.31,63.87,21.22,40.19,53.3,74.82,92.57,97.87,1.36.8,2.49,1.22,3.27,2.52-20.29.77-46.3-25.14-59.81-38.15-28.72-27.66-50.03-63.86-60.47-102.72-5.41-20.11-11.08-41.32-7.4-61.82,1.38-7.7,2.3-10.27,2.3-10.27Z"/>
    <path class="cls-4" d="m67.94,435.57c-37.86,32.35-30.57,108.16-14.02,153.4,20.29,55.47,116.91,157.62,169.66,156.39,64.74-1.51,105.41-106.66,85.76-160.84-8.69-23.97-37.86-61.11-42.2-66.63-11.48-14.61-21.66-25.43-27.76-31.65-20.62-21.03-40.53-41.33-71.63-55.53-16.98-7.75-35.15-16.04-58.86-12.77-17.3,2.39-32.3,10.22-40.96,17.62Z"/>
    <path class="cls-5" d="m115,482.92c-16.52,14.62-13.95,41.05-12.22,56.64,5.99,53.87,56.51,115.95,76.63,121.6,31.76,8.92,63.65-81.3,38.93-134.9-10.76-23.32-35.75-50.2-67.25-52.78-5.39-.44-23.27-1.91-36.09,9.44Z"/>
    <path class="cls-4" d="m459.9,430.14c-9.52-7.3-35.43-25.79-51.63-31.07-31.91-10.4-63.62,2.2-86,14.43-65.25,35.63-95.89,95.02-111.08,125.41-9.76,19.54-23.8,48.25-28.67,88.68-3.34,27.71,1.06,63.49,24.4,97.35,2.42,3.51,23.73,28.54,37.47,40.73,70.4,62.4,298.88-271.64,215.49-335.52Z"/>
    <path class="cls-2" d="m451.35,431.77c-28.87-14.71-71.91,6.39-102.27,30.36-64.65,51.04-94.61,109.3-103.87,134.23-7.39,19.9-47.95,129.07,0,170.98,26.16,22.86,66.67,15.23,71.26,14.31,128.69-26.06,219.57-306.73,134.88-349.88Z"/>
    <path class="cls-1" d="m463.59,434.86c-45.92-8.04-60.38.42-81.95,11.94-17.72,9.46-41.89,26.12-64.84,51.79-37.96,42.45-75.3,110.51-84.54,157.53-11.04,56.16-8.1,93.94,14.95,113.12,4.15,3.45-14.9-9.15-17.3-16.44-6.33-19.18-11.65-59.13-8.79-86.29,3.81-36.25,40.88-116.46,61.65-140.47,0,0,45.43-74.31,124.93-98.97,16.32-5.06,36.18-2.86,40.56-1.62,6.41,1.81,19.5,10.13,15.33,9.4Z"/>
    <path class="cls-5" d="m441.82,501.21c-27.4-13.6-101.54,87.43-111.42,100.9-24.18,32.95-39.81,64.39-47.38,100.02-4.5,21.17-13.36,62.9,7.02,78.96,15.45,12.18,40.57,3.98,47.38,1.75,95.83-31.28,141.64-263.14,104.41-281.63Z"/>
    <path class="cls-2" d="m33.05,467.41c-7.98-45.18,1.4-95.31,2.1-140.86.14-9.4,18.9-85.17,30.65-119.44,5.79-16.88,9.55-29.03,18.65-47.33,20.78-41.79,44.75-82.73,87.08-113.95,12.52-9.24,60.28-37.58,115.64-26,33.65,7.04,69.84,26.45,94.05,52.48,57.74,62.07,73.07,132.92,81.86,173.54,15.2,70.24,8.72,122.7,1.09,184.45-3.93,31.79-9.34,56.41-24.01,81.86-10.88,18.87-18.5,23.71-48.02,55.66-40.32,43.64-60.47,65.46-73.13,90.59,0,0-22.4,44.5-16.37,103.69.44,4.34,2.48,21.56,10.91,24.01,4.6,1.34,8.19-2.56,15.28-1.09,5.95,1.23,8.79,5.08,12.01,7.64,7.42,5.91,17.19,5.24,43.66,1.09,25.36-3.98,38.04-5.97,43.66-7.64,54.93-16.35,88.98-74.06,102.6-97.14,14.36-24.34,28.57-49.14,27.29-81.86-.72-18.36-5.81-26.17-9.82-43.66-10.35-45.1,3.11-82.07,9.82-106.96,28.06-104.1-2.14-218.87-4.37-227.02-9.41-34.43-31.55-102.38-91.36-153.13-51.94-44.07-107.78-59.63-141.12-68.44C290.98-.08,275.1-.3,265.45.13c-47.25,2.1-81.88,25.98-100.61,39.24-25.98,18.39-41.67,37.29-51.66,49.49-6.63,8.1-32.8,40.88-56.02,100.61-31.01,79.78-33.52,147.86-34.81,193.61-1.08,38.46.61,94.29,5.98,94.63,1.61.1,5.71-4.7,4.72-10.29Z"/>
    <path class="cls-3" d="m554.52,237.53c-29.1-10.93-63.22-7.46-89.52,9.11"/>
    <path class="cls-5" d="m499.66,585.03c4.66.74,25.12,4.01,36.62,20.98,28.2,41.62-18.61,134.4-84.09,170.65-13.82,7.65-39.31,21.77-56.96,11.19-26.12-15.65-21.11-77.04-4.07-117.5,17.77-42.17,61.76-92.79,108.5-85.33Z"/>
  </g>
</svg>