<?xml version="1.0" encoding="utf-8"?>
<!-- Generator: Adobe Illustrator 25.1.0, SVG Export Plug-In . SVG Version: 6.00 Build 0)  -->
<svg version="1.1" id="Layer_1" xmlns="http://www.w3.org/2000/svg" xmlns:xlink="http://www.w3.org/1999/xlink" x="0px" y="0px"
	 viewBox="0 0 135.2 39.2" style="enable-background:new 0 0 135.2 39.2;" xml:space="preserve">
<style type="text/css">
	.st0{fill:#E72860;}
	.st1{fill:#565656;}
</style>
<path class="st0" d="M134.2,18.9c0.2-1,0.4-2,0.4-3v-0.1c-0.1-0.7-0.2-2.3-1.7-3.5c-1-0.7-2.1-1.2-3.5-1.5c0-0.8-0.3-3.8-3.3-5.2
	c-1.6-0.8-3.4-1-5.2-1.1c-0.2,0-0.4,0-0.6,0c-0.5-0.3-3.7-1.7-6.3-1.8l0,0c-3.1,0-9.2,2.3-11.4,5.9c-4.2,2.1-6.4,4.6-6.4,6.9
	c0.1,3.1,2.9,5,8.4,5.5c0.7,0.7,1.7,1.4,2.9,2.1c0,0,0.1,0,0.1,0.1c0,0,0.1,0,0.1,0.1l0,0c0.4,2.5,1.4,4.6,3,6.1
	c2.1,2.1,6.9,1.8,9.6,0.3c0.4,0.1,1.7,0.8,4.3,1c-0.7,1.2-1.9,1.7-2.5,1.9c-0.1,0-0.1,0.1-0.2,0.1c-1.8,0.6-3.1,1.9-3.7,3.8
	c-0.4,1.4-0.3,2.5-0.3,2.6v0.1h1.6c0,0-0.1-1.2,0.2-2.2c0.4-1.4,1.3-2.3,2.7-2.7l0.2-0.1c0.6-0.2,1.9-0.8,3-2.1
	c0.3-0.4,0.6-0.8,0.7-1.3c3.1,0,5.2-0.6,6.9-1.9C135.4,27.1,135.8,23.7,134.2,18.9 M129.2,12.5c1.1,0.2,2,0.6,2.7,1.1
	c0.9,0.7,1,1.8,1.1,2.3c0,0.3,0,0.6,0,1c-1.1-1.4-2.4-2.5-4-3.5C129.1,13.1,129.1,12.8,129.2,12.5 M125.8,7.2c1.8,1.1,1.9,3,1.9,3.6
	c-0.4,0-1.4,0.1-1.5,0.2c-0.3-0.5-3.2-4.2-3.9-5C123.4,6.2,124.8,6.6,125.8,7.2 M127.6,12.3c0,0.1,0,0.1,0,0.2
	c-0.1-0.1-0.3-0.1-0.4-0.2C127.3,12.3,127.4,12.3,127.6,12.3 M122.4,26c-1-0.4-3.9-2.3-4.2-2.5c3.3-1.1,5.2-2.6,5.3-2.6
	c0.5,1.4,0.8,2.6,0.9,3.4C123.8,24.8,123.1,25.4,122.4,26 M124.9,26c0,0.2,0,0.4,0.1,0.6c-0.1,0-0.5,0-0.6-0.1
	C124.5,26.4,124.7,26.2,124.9,26 M116.9,22.2c-0.4-0.5-0.6-0.9-0.6-1.3c-0.1-0.6,0.2-1.2,0.7-1.8c0.4-0.3,1.5-1.4,2.8-1.4
	c0.1,0,0.2,0,0.3,0c0.9,0.1,1.8,0.7,2.6,1.8C121.5,20.4,118.8,21.9,116.9,22.2 M124.1,18.2c-1.1-2.1-2.5-4.1-4.3-5.8
	c2.6,0.1,5.8,0.7,6,1.2c0.2,0.3,0.3,0.5,0.4,0.7C126.2,15.6,125.5,16.9,124.1,18.2 M119.7,6.1c1.9,1.2,3.8,3.8,4.8,5.3
	c-0.8-0.2-2.9-0.5-4.8-0.7c-0.6,0-1.2-0.1-1.9-0.1c0,0,0,0-0.1-0.1c-1.4-1.3-2.6-2.1-3.6-2.5C115.2,7.4,118.3,5.6,119.7,6.1
	 M115.5,10.7c-0.7,0-1.5,0.1-2.3,0.2c-0.7,0.1-1.3,0.1-2,0.2c0-0.1,0.1-0.1,0.1-0.2c0.2-0.4,0.5-0.8,0.9-1.2
	c0.1-0.1,0.3-0.3,0.4-0.4C113.7,9.5,114.7,10,115.5,10.7 M113.8,4.4c1.1,0,2.1,0.2,3.2,0.5c-1.8,0.7-3.5,1.6-4.8,2.6
	c-2-0.3-4.4-0.2-7.2,0.4C106.1,7,109.9,4.4,113.8,4.4 M97.4,15.7c-0.2-1.7,2-3.4,3.9-4.6c-0.5,1.7-0.7,4.4,0.6,7.5
	c0,0,0.3,0.6,0.6,0.9C101.3,19.3,97.8,18.1,97.4,15.7 M106.6,20.8c0.3,0,0.6-0.1,0.8-0.2c0,0.2,0,0.5,0,0.7
	C107.1,21.2,106.9,21,106.6,20.8 M107.4,18.9c-0.5,0.2-2,0.4-2.6,0.1c-0.4-0.6-0.6-1.1-0.7-1.5c-0.4-2,2.1-3.8,4.1-4.5
	C107,16,107.3,18.4,107.4,18.9 M102.8,15.9c-0.4-1.7-0.3-3.4,0.3-5.1c0.1-0.3,0.3-0.7,0.4-1c2.7-0.7,5.1-1,7-0.9
	c-0.6,0.6-1.6,2.2-1.7,2.3C105.5,11.9,103.4,14.6,102.8,15.9 M110.1,12.7c1.2-0.1,2.1,0.2,2.5,0.8c0.9,1.2,0.6,2.3,0.5,2.7
	c-0.4,1.4-1.7,2.1-4.2,2.4C108.9,18,108.8,15.4,110.1,12.7 M109,20.3c0.6-0.1,3.9-0.6,5.2-2.8c0.5-0.8,0.6-2,0.4-3.1
	c-0.2-0.9-0.6-1.7-1.1-2.1c0.2,0,2.7-0.1,3.8-0.1c1.5,1.2,2.8,2.6,3.9,4.1c-0.3-0.1-0.7-0.2-1-0.2c-1.4-0.2-2.9,0.4-4.3,1.8l0,0
	c-0.9,1-1.2,2-1.1,3.1c0.1,0.5,0.2,1,0.5,1.5c-0.3,0.1-0.7,0.1-1,0.1c-0.2-0.4-0.4-1.1-0.4-1.1h-1.6c0,0,0.1,0.3,0.1,0.4
	c0,0.2,0.1,0.5,0.2,0.8h-0.5c-1,0-2-0.2-2.9-0.5C109.1,21.8,109,20.7,109,20.3 M111.6,28.2c-1-0.8-1.8-2.1-2.2-4.2
	c0.7,0.2,1.4,0.3,2.1,0.3c0.6,0,0.9,0,1.5,0c1.6,2.3,3.3,3.6,5.4,4.5C117.6,29.1,114.6,30.4,111.6,28.2 M119.9,27.9
	c-1.7-0.7-3.6-1.8-5-3.8c0.3,0,1.1-0.1,1.4-0.2c0.6,0.6,3.8,2.8,4.7,3.2C120.7,27.4,120.2,27.7,119.9,27.9 M125.1,29.1
	c-1.5-0.1-2.7-0.4-3.3-0.5c0.3-0.2,0.7-0.5,1-0.8c0.8,0.2,1.6,0.4,2.3,0.4C125.1,28.5,125.1,28.8,125.1,29.1 M125.8,22.9
	c-0.3-1.1-0.6-2.1-1-3.1c1.1-1,2-2.1,2.5-3.1c0.2,0.5,0.5,1.2,0.5,2C127.8,20.1,127.1,21.5,125.8,22.9 M126.3,24.7
	c0.2-0.2,0.4-0.4,0.4-0.4c2.5-2.4,2.8-4.8,2.6-6.3s-0.8-2.5-1.1-2.9c0-0.1,0.1-0.1,0.1-0.2c1.6,1,2.9,2.3,3.9,3.8
	c0.1,0.1,0.2,0.3,0.3,0.4c-0.5,1.7-1.4,3.2-2.7,4.6c-1.5,1.6-2.8,2.5-3.1,2.6C126.6,26.2,126.3,24.7,126.3,24.7 M132.3,27.7
	c-1.7,1.3-3.9,1.5-5.6,1.5c0-0.4,0-0.7,0-1.1c0.5-0.2,2.5-1.4,4.2-3.2c1.1-1.1,1.9-2.4,2.5-3.7C133.8,22.5,134.3,26.2,132.3,27.7"/>
<path class="st1" d="M23.8,23.8l2.2-0.7c-0.5-2-1.9-3-4.2-3c-2.8,0-4.6,1.7-4.6,4.6v1h-1.8v2.4h1.8v9.2h3.4v-9.2h2.8v-2.4h-2.8v-1.3
	c0-1.1,0.5-1.9,1.5-1.9C23,22.5,23.5,23,23.8,23.8 M33.4,31.2c0,2.3-1.1,3.9-3.2,3.9S27,33.5,27,31.2c0-2.4,1.1-4,3.2-4
	S33.4,28.8,33.4,31.2 M36.8,31.2c0-3.8-2.7-6.5-6.6-6.5s-6.6,2.7-6.6,6.5s2.7,6.5,6.6,6.5S36.8,35,36.8,31.2 M46.8,37.3h3.4v-7.7
	c0-2.7-1.2-5-4.6-5c-1.9,0-3.5,1-4.1,2.4v-2h-3.4v12.3h3.4v-6.6c0-2.1,1.1-3.4,2.8-3.4s2.4,1.1,2.4,3L46.8,37.3L46.8,37.3z M58,27.3
	c1.9,0,3.3,1.4,3.3,3.6v0.5c0,2.3-1.4,3.6-3.3,3.6c-2.1,0-3.2-1.5-3.2-3.9C54.8,28.8,55.9,27.3,58,27.3 M57,24.6
	c-3.7,0-5.6,2.9-5.6,6.5s1.9,6.5,5.6,6.5c2.2,0,3.7-1.2,4.3-2.7v2.4h3.4V21.2h-3.4v6.2C60.7,25.8,59.2,24.6,57,24.6 M69.4,29.9
	c0.3-1.5,1.2-2.8,3.1-2.8s2.8,1.4,2.9,2.8H69.4z M69.3,32h9.4v-1.2c0-3.4-2.1-6.2-6.2-6.2c-3.7,0-6.6,2.8-6.6,6.7s2.8,6.3,6.6,6.3
	c3.2,0,5.4-1.6,6-4.4L75.9,33c-0.5,1.4-1.5,2.1-3.1,2.1C70.9,35.1,69.4,33.8,69.3,32 M92.1,37.3v-7.7c0-2.7-1.2-5-4.6-5
	c-1.9,0-3.5,1-4.1,2.4v-2H80v12.3h3.4v-6.6c0-2.1,1.1-3.4,2.8-3.4c1.7,0,2.4,1.1,2.4,3v7H92.1z"/>
<path class="st1" d="M56,0.6c0.4,0.4,0.6,0.9,0.6,1.5c0,0.7-0.2,1.2-0.6,1.5c-0.4,0.4-0.9,0.6-1.4,0.6c-0.6,0-1.1-0.2-1.5-0.6
	s-0.6-0.9-0.6-1.5s0.2-1,0.6-1.4C53.4,0.2,53.9,0,54.5,0S55.6,0.2,56,0.6 M31.6,14.5h-0.1l-3.4-8.4h-3.5l5.1,12.4L27.9,23h3.3
	l7.1-16.9H35L31.6,14.5z M51.7,6.1h-4.1l-5.3,5V0.8H39v17.6h3.4v-4.2l1.4-1.3l4.3,5.5h3.8L46.3,11L51.7,6.1z M21,11l-2.4-0.4
	c-0.9-0.1-1.3-0.5-1.3-1.2c0-0.8,0.8-1.4,2-1.4c1.8,0,2.7,0.7,2.9,2.1L25,10c-0.2-2.7-2.3-4.3-5.7-4.3c-3.1,0-5.1,1.6-5.1,4
	c0,2.3,1.5,3.3,4.1,3.7l2,0.3c1.2,0.2,1.8,0.6,1.8,1.4c0,0.9-1,1.3-2.2,1.3c-1.7,0-2.8-0.8-3-2.2L14,14.3c0.2,3,2.7,4.4,5.9,4.4
	s5.4-1.4,5.4-3.9C25.1,12.5,23.6,11.4,21,11 M52.8,18.4h3.4V6.1h-3.4V18.4z M74.8,14.5V8.4h3.4V6.1h-3.4V2.7h-2l-0.4,1.7
	c-0.3,1.1-0.6,1.8-1.8,2l-0.8,0.1v2h1.8v6.9c0,2.6,1.6,3.5,3.5,3.5c1.5,0,2.5-0.4,3.4-1.1v-2.2c-0.7,0.3-1.4,0.6-2.1,0.6
	C75.3,16.1,74.8,15.6,74.8,14.5 M88.8,18.4h3.4V6.1h-3.4V18.4z M82.8,8.4V6.1h-3.4v12.3h3.4v-6.1c0-2.2,1.2-3.5,2.9-3.5
	c0.8,0,1.4,0.2,2,0.5L88,6.2c-0.4-0.3-1-0.5-1.7-0.5C84.5,5.7,83.2,7,82.8,8.4 M69.6,16.4c0.3,0,0.7-0.1,1-0.3v1.8
	c-0.5,0.4-1.2,0.8-2.3,0.8c-1.4,0-2.3-0.8-2.6-2.2c-0.7,1.4-2.4,2.2-4.2,2.2c-2.6,0-4.1-1.3-4.1-3.4c0-2.3,1.9-3.3,4.7-3.9l3.4-0.7
	v-0.3c0-1.4-0.7-2.2-2.2-2.2c-1.4,0-2.2,0.8-2.4,2l-3-0.3c0.4-2.5,2.4-4.3,5.6-4.3c3.2,0,5.3,1.5,5.3,4.8v4.9
	C68.7,16.1,69,16.4,69.6,16.4 M65.4,12.8l-2.3,0.5c-1.5,0.3-2.5,0.6-2.5,1.8c0,0.8,0.6,1.3,1.7,1.3c1.8,0,3.1-1.3,3.1-3.3V12.8z
	 M13.2,12.3c0,3.6-1.9,6.5-5.6,6.5c-2.2,0-3.7-1.2-4.3-2.7V23H0V6.1h3.4v2.4C4,7,5.4,5.8,7.7,5.8C11.2,5.7,13.2,8.6,13.2,12.3
	 M9.8,12.3c0-2.4-1.1-3.9-3.2-3.9c-1.9,0-3.2,1.4-3.2,3.6v0.5c0,2.3,1.3,3.6,3.2,3.6C8.7,16.1,9.8,14.6,9.8,12.3 M89.1,3.6
	C89.5,4,90,4.2,90.5,4.2c0.6,0,1-0.2,1.4-0.6s0.6-0.9,0.6-1.5S92.3,1,91.9,0.6C91.6,0.2,91.1,0,90.5,0S89.4,0.2,89,0.6
	S88.4,1.5,88.4,2C88.5,2.7,88.7,3.2,89.1,3.6"/>
</svg>
