<?xml version="1.0" encoding="UTF-8"?>
<svg id="Layer_2" data-name="Layer 2" xmlns="http://www.w3.org/2000/svg" viewBox="0 0 1878.39 10278.88">
  <defs>
    <style>
      .cls-1 {
        fill: none;
        stroke: #e62960;
        stroke-width: 3px;
      }
    </style>
  </defs>
  <g id="Layer_1-2" data-name="Layer 1">
    <path id="Path_16" data-name="Path 16" class="cls-1" d="m297.45,38.34c7.02,98.48,1658.54-370.56,1476.21,524.48C1530.15,1928.51,180.6,396.7,85.43,1233.17c-2.31,254.74,71.15,338.23,202.87,437.88,437.12,330.68,1176.79,164.44,1327.2,543.24,72.65,182.96,22.2,301.15-126.59,357.36-158.51,59.89-429.64,48.74-782.23-30.3C70.11,2406.27,58,2784.47,44.99,3243.9c-5.76,550.13,898.33,477.02,1351.48,655.55s383.7,616.45,228.24,684.17c-294.79,144.84-774.62-14.85-1134.77,49.02-280.58,34.82-428.76,161.41-452.09,514.82-23.34,353.41,564.03,919.51,1265.14,1153.42,492.88,164.44,466.19,904.06,393.46,1022.87-196.74,421.34-1274.33-503.56-1587.03-59.04-225.05,296.34-67.97,441,194.31,593.68,262.28,152.68,1136.39,173.84,1329.03,286.61,141.82,78.75,309.39,301.38-31.92,534.52s-996.1-86.41-1406.73,386.77c-203.58,225.95-226.88,405.47-106.03,670.53,90.64,185.52,278.8,356.46,725.76,483.02,446.96,126.56,1091.62,1.68,1062.07,23.22"/>
  </g>
</svg>