<?xml version="1.0" encoding="UTF-8"?>
<svg id="Layer_2" data-name="Layer 2" xmlns="http://www.w3.org/2000/svg" viewBox="0 0 537.16 464.73">
  <defs>
    <style>
      .cls-1 {
        letter-spacing: -.03em;
      }

      .cls-2 {
        letter-spacing: 0em;
      }

      .cls-3 {
        letter-spacing: -.04em;
      }

      .cls-4 {
        letter-spacing: 0em;
      }

      .cls-5 {
        letter-spacing: -.05em;
      }

      .cls-6 {
        fill: #565656;
      }

      .cls-7, .cls-8, .cls-9 {
        isolation: isolate;
      }

      .cls-10 {
        letter-spacing: -.03em;
      }

      .cls-11 {
        letter-spacing: -.02em;
      }

      .cls-12 {
        letter-spacing: 0em;
      }

      .cls-13 {
        letter-spacing: -.02em;
      }

      .cls-14 {
        letter-spacing: -.03em;
      }

      .cls-15 {
        letter-spacing: -.02em;
      }

      .cls-16 {
        letter-spacing: 0em;
      }

      .cls-17 {
        letter-spacing: -.06em;
      }

      .cls-18 {
        letter-spacing: -.01em;
      }

      .cls-8 {
        font-family: Kanit-Medium, Kanit;
        font-size: 30px;
        font-weight: 500;
      }

      .cls-8, .cls-9 {
        fill: #fff;
      }

      .cls-19 {
        letter-spacing: 0em;
      }

      .cls-20 {
        letter-spacing: 0em;
      }

      .cls-21 {
        letter-spacing: 0em;
      }

      .cls-22 {
        letter-spacing: -.09em;
      }

      .cls-9 {
        font-family: Kanit-Regular, Kanit;
        font-size: 25px;
      }

      .cls-23 {
        letter-spacing: -.04em;
      }

      .cls-24 {
        letter-spacing: -.08em;
      }

      .cls-25 {
        letter-spacing: -.07em;
      }

      .cls-26 {
        letter-spacing: -.02em;
      }
    </style>
  </defs>
  <g id="Layer_1-2" data-name="Layer 1">
    <g id="Group_78" data-name="Group 78">
      <path id="Path_52" data-name="Path 52" class="cls-6" d="m338.11,11.83c88.73,55.46,123.36,110.29,134.21,227.74,1.63,17.63,31.49,42.61,64.84,40.76-18.53,27.79-57.99,63.13-64.85,74.1-41.29,66.07-196.07,157.92-318.79,81.22S-28.2,222.22,13.09,156.16c20.02-32.04,88.14-38.11,146.5-75.43,61.88-39.57,115.32-108.4,178.51-68.9Z"/>
      <g id="Lyst_til_at_høre_mere_Lyt_til_hele_Claras_fortælling_hvor_hun_også_kommer_ind_på_triggers_og_hendes_oplevelse_med_at_søge_psykologhjælp._" data-name="Lyst til at høre mere Lyt til hele Claras fortælling hvor hun også kommer ind på triggers og hendes oplevelse med at søge psykologhjælp. " class="cls-7">
        <text class="cls-8" transform="translate(109.87 157.53)"><tspan class="cls-24" x="0" y="0">L</tspan><tspan class="cls-5" x="13.23" y="0">y</tspan><tspan class="cls-13" x="30.27" y="0">s</tspan><tspan class="cls-20" x="43.95" y="0">t til at </tspan><tspan class="cls-11" x="130.8" y="0">h</tspan><tspan x="147.93" y="0">ø</tspan><tspan class="cls-26" x="165.6" y="0">r</tspan><tspan x="176.19" y="0">e </tspan><tspan class="cls-11" x="199.05" y="0">m</tspan><tspan x="224.31" y="0">e</tspan><tspan class="cls-26" x="240.56" y="0">r</tspan><tspan x="251.15" y="0">e?</tspan></text>
        <text class="cls-9" transform="translate(109.87 197.53)"><tspan class="cls-22" x="0" y="0">L</tspan><tspan x="11" y="0">yt til </tspan><tspan class="cls-12" x="69.52" y="0">h</tspan><tspan x="83.72" y="0">ele Cla</tspan><tspan class="cls-1" x="158.92" y="0">r</tspan><tspan x="167.15" y="0">as </tspan></text>
        <text class="cls-9" transform="translate(109.87 235.53)"><tspan class="cls-10" x="0" y="0">f</tspan><tspan x="8.12" y="0">ortæ</tspan><tspan class="cls-14" x="62.62" y="0">l</tspan><tspan class="cls-3" x="69" y="0">l</tspan><tspan class="cls-16" x="75.12" y="0">in</tspan><tspan class="cls-3" x="96.7" y="0">g</tspan><tspan class="cls-16" x="109.67" y="0">, </tspan><tspan class="cls-15" x="120.7" y="0">h</tspan><tspan class="cls-17" x="134.52" y="0">v</tspan><tspan x="147.6" y="0">or hun o</tspan><tspan class="cls-14" x="240.47" y="0">g</tspan><tspan class="cls-18" x="253.7" y="0">s</tspan><tspan class="cls-16" x="264.92" y="0">å </tspan></text>
        <text class="cls-9" transform="translate(109.87 273.53)"><tspan class="cls-25" x="0" y="0">k</tspan><tspan x="11.8" y="0">om</tspan><tspan class="cls-12" x="47.72" y="0">m</tspan><tspan class="cls-2" x="68.87" y="0">er i</tspan><tspan class="cls-12" x="104.15" y="0">n</tspan><tspan x="118.35" y="0">d på tri</tspan><tspan class="cls-18" x="197.7" y="0">g</tspan><tspan class="cls-12" x="211.17" y="0">g</tspan><tspan x="224.77" y="0">e</tspan><tspan class="cls-19" x="238.2" y="0">r</tspan><tspan x="247.05" y="0">s og </tspan></text>
        <text class="cls-9" transform="translate(109.87 311.53)"><tspan class="cls-12" x="0" y="0">h</tspan><tspan x="14.2" y="0">e</tspan><tspan class="cls-12" x="27.62" y="0">nd</tspan><tspan class="cls-21" x="56.12" y="0">e</tspan><tspan class="cls-16" x="69.42" y="0">s opl</tspan><tspan class="cls-17" x="122.85" y="0">ev</tspan><tspan x="147.97" y="0">el</tspan><tspan class="cls-18" x="168.4" y="0">s</tspan><tspan x="179.62" y="0">e </tspan><tspan class="cls-12" x="198.8" y="0">m</tspan><tspan x="219.95" y="0">ed at </tspan></text>
        <text class="cls-9" transform="translate(109.87 349.53)"><tspan class="cls-18" x="0" y="0">s</tspan><tspan x="11.22" y="0">ø</tspan><tspan class="cls-4" x="25.75" y="0">g</tspan><tspan class="cls-2" x="39.35" y="0">e </tspan><tspan class="cls-21" x="58.52" y="0">p</tspan><tspan class="cls-23" x="72.95" y="0">s</tspan><tspan x="83.42" y="0">y</tspan><tspan class="cls-25" x="98.37" y="0">k</tspan><tspan x="110.17" y="0">ologhjælp.</tspan></text>
      </g>
    </g>
  </g>
</svg>