<?xml version="1.0" encoding="UTF-8"?>
<svg id="Layer_2" data-name="Layer 2" xmlns="http://www.w3.org/2000/svg" viewBox="0 0 779 89">
  <defs>
    <style>
      .cls-1 {
        fill: #5880a5;
      }

      .cls-2, .cls-3 {
        isolation: isolate;
      }

      .cls-4, .cls-3 {
        fill: #ebe9e0;
      }

      .cls-3 {
        font-family: Kanit-Regular, Kanit;
        font-size: 20px;
      }
    </style>
  </defs>
  <g id="Layer_1-2" data-name="Layer 1">
    <g id="Podcast">
      <g id="Group_68" data-name="Group 68">
        <path id="Path_53" data-name="Path 53" class="cls-1" d="m44.5,0h690c24.58,0,44.5,19.92,44.5,44.5s-19.92,44.5-44.5,44.5H44.5C19.92,89,0,69.08,0,44.5S19.92,0,44.5,0Z"/>
        <path id="Rectangle_34" data-name="Rectangle 34" class="cls-4" d="m169,36h507c5.52,0,10,4.48,10,10h0c0,5.52-4.48,10-10,10H169c-5.52,0-10-4.48-10-10h0c0-5.52,4.48-10,10-10Z"/>
        <path id="Icon_awesome-play" data-name="Icon awesome-play" class="cls-4" d="m54.39,42.6l-24.75-14.64c-1.59-.96-3.65-.45-4.61,1.14-.32.53-.49,1.14-.48,1.77v29.26c0,1.86,1.51,3.37,3.37,3.37.6,0,1.2-.16,1.72-.47l24.75-14.63c1.6-.95,2.14-3.01,1.19-4.62-.29-.49-.7-.9-1.19-1.19h0Z"/>
        <g id="_43:54" data-name=" 43:54" class="cls-2">
          <text class="cls-3" transform="translate(708.01 52)"><tspan x="0" y="0">43:54</tspan></text>
        </g>
        <path id="Icon_material-replay-10" data-name="Icon material-replay-10" class="cls-4" d="m89.6,36.5v-6l-7.5,7.5,7.5,7.5v-6c4.97,0,9,4.03,9,9s-4.03,9-9,9-9-4.03-9-9h-3c0,6.63,5.37,12,12,12s12-5.37,12-12-5.37-12-12-12Zm-1.65,16.5h-1.35v-4.95l-1.5.45v-1.05l2.7-.9h.15v6.45Zm6.45-2.7c.03.41-.02.81-.15,1.2l-.45.9s-.45.45-.75.45-.6.15-.9.15c-.31.02-.62-.03-.9-.15-.3-.15-.45-.3-.75-.45s-.3-.45-.45-.9c-.12-.39-.17-.79-.15-1.2v-1.05c-.03-.41.02-.81.15-1.2l.45-.9s.45-.45.75-.45.6-.15.9-.15c.31-.02.62.03.9.15.3.15.45.3.75.45s.3.45.45.9c.12.39.17.79.15,1.2v1.05Zm-1.35-1.2v-.75c-.07-.14-.12-.29-.15-.45,0-.15-.15-.15-.3-.3-.27-.2-.63-.2-.9,0l-.3.3c-.07.14-.12.29-.15.45v3c.07.14.12.29.15.45,0,.15.15.15.3.3.27.2.63.2.9,0l.3-.3c.07-.14.12-.29.15-.45v-2.25Z"/>
        <path id="Icon_material-forward-10" data-name="Icon material-forward-10" class="cls-4" d="m113.15,48.5c0,6.63,5.37,12,12,12s12-5.37,12-12h-3c0,4.97-4.03,9-9,9s-9-4.03-9-9,4.03-9,9-9v6l7.5-7.5-7.5-7.5v6c-6.62.02-11.98,5.38-12,12Zm10.2,4.5h-1.2v-4.95l-1.5.45v-1.05l2.7-.9h.15v6.45h-.15Zm6.45-2.7c.03.41-.02.81-.15,1.2l-.45.9s-.45.45-.75.45-.6.15-.9.15c-.31.02-.62-.03-.9-.15-.3-.15-.45-.3-.75-.45s-.3-.45-.45-.9c-.12-.39-.17-.79-.15-1.2v-1.05c-.03-.41.02-.81.15-1.2l.45-.9s.45-.45.75-.45.6-.15.9-.15c.31-.02.62.03.9.15.3.15.45.3.75.45s.3.45.45.9c.12.39.17.79.15,1.2v1.05Zm-1.2-1.2v-.75c-.07-.14-.12-.29-.15-.45,0-.15-.15-.15-.3-.3-.27-.2-.63-.2-.9,0l-.3.3c-.07.14-.12.29-.15.45v3c.07.14.12.29.15.45,0,.15.15.15.3.3.27.2.63.2.9,0l.3-.3c.07-.14.12-.29.15-.45v-2.25Z"/>
      </g>
    </g>
  </g>
</svg>