<svg xmlns="http://www.w3.org/2000/svg" width="636.177" height="441.914" viewBox="0 0 636.177 441.914">
  <g id="Group_3865" data-name="Group 3865" transform="translate(-31.086 -212.416)">
    <path id="Path_2999" data-name="Path 2999" d="M162.05,500.509s-79.387-142.186,53.8-217.02" transform="translate(6.241 4.329)" fill="none" stroke="#daa92c" stroke-width="10"/>
    <path id="Path_3065" data-name="Path 3065" d="M86.795,532.16S-46.774,326.9,119.765,251" transform="translate(0 2.35)" fill="none" stroke="#daa92c" stroke-width="10"/>
    <path id="Path_3000" data-name="Path 3000" d="M243.858,437.893s-50.9-91.159,34.5-139.141" transform="translate(11.737 5.259)" fill="none" stroke="#daa92c" stroke-width="10"/>
    <g id="Group_3646" data-name="Group 3646" transform="translate(278.173 212.416)">
      <path id="Path_2999-2" data-name="Path 2999-2" d="M649.769,268.23c-6.824-11.333-20.761-17.549-34.267-21.34C552,229.066,495.414,221.784,430.14,212.622c-8.363-1.174-19.923,2.758-26.486,9.636s-10.223,15.61-13.752,24.15Q333.922,381.738,277.95,517.07c-9,21.76-21.094,45.557-7.734,65.352,7.1,10.514,22.412,19.344,34.535,24.784,43.217,19.4,73.871,28.389,120.1,41.7,9.106,2.623,32.146,6.214,40.932,5.265,13.636-1.475,33.107-5.141,43.518-26.748,46.864-97.294,90.989-195.962,130.349-304.193C645.758,306.436,660,285.229,649.769,268.23ZM375.123,606.791c-5.046,8.331-20.332,8.78-25.953.762s2.993-21.5,11.305-21.865C373.562,585.106,380.173,598.457,375.123,606.791ZM621.758,296.9c-7.974,27.316-16.718,57.391-26.071,82.32-25.62,68.291-51.469,125.226-79.751,185.61-5.671,12.106-12.213,26.9-21.926,35.933-10.059,9.349-46.841-7.187-60.625-11.972-46.033-15.986-66.688-22.056-117-42.876-2.649-1.095-16.818-9.429-17.759-14.349-1.144-6,1.887-14.111,3.069-17.22,34.527-90.936,78.428-188.145,112.508-267.643,6.806-15.877,54.146-7.4,69.617-4.73,24.9,4.306,48.274,8.693,71.979,14.045,17.463,3.942,35.206,8.449,53.724,13.828,3.258.945,8.712,1.681,13.112,7.68C627.295,283.884,622.8,293.313,621.758,296.9Z" transform="translate(-264.275 -212.416)" fill="#863944"/>
    </g>
    <g id="Group_3680" data-name="Group 3680" transform="translate(373.756 304.01)">
      <g id="Group_3373" data-name="Group 3373" transform="translate(59.01)">
        <path id="Path_2147" data-name="Path 2147" d="M415.413,332.322c16-43.822,106.129-48.661,112.912,9.006a53.82,53.82,0,0,1-3.038,24.7c-18.527,47.379-99.832,40.253-113.87-5.324C408,349.612,411.276,343.019,415.413,332.322Z" transform="translate(-409.992 -298.751)" fill="#eacb86"/>
      </g>
      <path id="Path_2571" data-name="Path 2571" d="M488.194,494.716c-3.233,3.878-49.146-9.548-84.138-21.791-33.659-11.776-51.688-19.738-49.51-32.381,2.1-12.188,12.45-53.123,37.319-52.5s109.368,14.277,118.36,32.027C519.106,437.6,502.323,477.783,488.194,494.716Z" transform="translate(-354.37 -293.313)" fill="#eacb86"/>
    </g>
  </g>
</svg>
