<?xml version="1.0" encoding="UTF-8"?>
<svg id="Layer_2" data-name="Layer 2" xmlns="http://www.w3.org/2000/svg" viewBox="0 0 905.17 905.17">
  <defs>
    <style>
      .cls-1 {
        fill: #fff;
      }

      .cls-2 {
        fill: #5880a5;
      }

      .cls-3 {
        fill: #d6d6d6;
      }

      .cls-4 {
        stroke: #000;
        stroke-miterlimit: 10;
        stroke-width: 2px;
      }

      .cls-4, .cls-5 {
        fill: none;
      }
    </style>
  </defs>
  <g id="Layer_10" data-name="Layer 10">
    <rect class="cls-5" width="905.17" height="905.17"/>
    <g id="Layer_1-2" data-name="Layer 1-2">
      <g>
        <path class="cls-2" d="m171.27,368.03c-41.94,90.34-53.12,192.7-45.38,291.98,3.74,47.78,12.59,97.36,41.49,135.61,24.84,32.87,62.15,54.07,100.22,69.86,122.96,50.96,268.36,52.1,386.84-8.55,24.58-12.59,48.16-27.9,66.62-48.42,28.62-31.83,43.02-74.02,51.22-116.02,24-122.88.24-251.89-50.68-366.27-13.83-31.07-29.85-61.57-52.14-87.25-51.54-59.33-133.39-87.05-211.92-84.15-47,1.74-97.94,18.14-137.94,42.68-42.02,25.78-78.19,60.61-107.11,100.4-15.97,21.96-29.78,45.5-41.21,70.14l-.02-.02Z"/>
        <path class="cls-1" d="m229.65,740.72c2.94-13.93,7.13-27.78,14.47-39.99,11.59-19.26,30.31-33.19,49.78-44.42,57.47-33.15,124.2-46.7,190.28-52.62,16.61-1.48,33.33-2.52,49.98-1.76,46.36,2.12,91.98,18.58,129.03,46.54,13.73,10.35,26.46,22.48,34.97,37.41,12.33,21.68,14.75,47.4,21.64,71.38,2.86,9.95,6.55,19.94,6.11,30.27-.94,22.06-20.48,37.73-38.11,50.28-76.16,54.15-163.8,64.91-163.8,64.91-34.71,0-62.03,2.38-102.09,0-12.09-.72-42.94-2.82-82.07-10.01-29.76-5.46-47.22-10.73-64.05-18.02-38.69-16.73-46.22-31.99-48.04-36.03-3.06-6.85-3.2-15.99-3.46-34.31-.3-20.38.24-39.41,5.36-63.63h0Z"/>
        <circle cx="346.87" cy="461.35" r="25.02"/>
        <circle cx="585.07" cy="461.35" r="25.02"/>
        <path class="cls-3" d="m776.29,609.93c-.7,5.48-1.54,11.17.2,16.41,3.76,11.31,17.77,16.09,23.22,26.7,27.26-11.43,53.62-26.54,73.3-48.6,19.68-22.06,32.03-51.88,28.32-81.23-.98-7.79-3.18-15.65-8.01-21.84-6.51-8.35-17.09-12.67-27.6-13.83-10.51-1.16-21.1.48-31.55,2.14-15.39,2.42-30.79,4.84-46.18,7.29-19.96,3.14-15.17,7.65-12.49,25.76,4.38,29.74.78,57.61.78,87.21v-.02Z"/>
        <path class="cls-3" d="m126.21,609.23c.7,5.48,1.54,11.17-.2,16.41-3.76,11.31-17.77,16.09-23.22,26.7-27.26-11.43-53.62-26.54-73.3-48.6S-2.56,551.86,1.16,522.54c.98-7.79,3.18-15.65,8.01-21.84,6.51-8.35,17.09-12.67,27.6-13.83,10.51-1.16,21.1.48,31.55,2.14,15.39,2.42,30.79,4.84,46.18,7.29,19.96,3.14,15.17,7.65,12.49,25.76-4.38,29.74-.78,57.61-.78,87.21v-.04Z"/>
        <path class="cls-4" d="m399.96,541.35c7.29,8.77,17.53,15.01,28.64,17.49,7.17,1.6,14.57,1.64,21.92,1.46,14.67-.38,29.32-1.7,43.82-3.98,16.83-2.64,34.99-7.51,44.86-21.4"/>
        <path class="cls-2" d="m427.8,88.12c6.67,9.87,8.79,22.68,5.68,34.17-2.32,8.61-7.33,16.23-10.49,24.56s-4.24,18.38.92,25.64c3.74,5.24,10.05,8.03,16.29,9.61,12.05,3.02,24.68,2.4,37.09,1.76,6.09-.32,12.27-.66,17.98-2.74,5.7-2.08,10.99-6.25,12.91-12.03,1.58-4.76.74-9.97-.12-14.91-3.22-18.52-6.55-37.33-14.91-54.17-8.37-16.83-22.64-31.69-40.89-36.21-3.38-.84-6.95-1.32-10.37-.66-6.37,1.22-19.38,3.36-22.06,9.59-3.86,9.03,2.82,7.75,7.97,15.37v.02Z"/>
        <path class="cls-1" d="m399.1,51.82c-12.77,4.44-24.98,11.69-32.89,22.68-7.91,10.99-10.87,26.06-5.24,38.37,1.1,2.42,2.56,4.74,4.6,6.45,2.04,1.68,4.56,2.68,7.03,3.62,9.43,3.64,19.3,7.35,29.34,6.25,6.95-.76,13.47-3.78,19.38-7.53,9.35-5.92,17.92-14.57,19.64-25.5,1.3-8.29-1.5-16.63-4.4-24.5-6.91-18.7-17.87-26.64-37.43-19.84h-.02Z"/>
        <path class="cls-1" d="m515.91,548.5c1.9-7.93,3.26-15.99,4.04-24.12,3.52,5.32,6.45,11.05,8.71,17.01.1.24,1.32.48,1.1.34s-.5.04-.7.22c-3.7,3.16-8.33,5.72-13.13,6.57l-.02-.02Z"/>
        <path class="cls-1" d="m438.45,557.67c-.98-5.82-.7-11.85.78-17.57,2.36,6.57,5.62,12.79,9.63,18.5-.66-.06-1.66-.14-2.9-.16-1.94-.04-2.66.1-4,0-.84-.06-2.06-.24-3.5-.76Z"/>
        <path class="cls-1" d="m491.99,548.42c1.84-4.64,3-12.11,4-12.01.32.04.3.84,1.02,2.74.5,1.34.84,1.56,2.02,4,.96,1.98,1.92,3.98,2.88,5.96.48,1,.98,2.02,1.28,3.1.02.08.04.16,0,.22-.04.04-.08.04-.12.06-2.64.64-5.3,1.18-7.97,1.6-1.34.22-2.68.4-4.02.54-.48.06-1.24.34-1.08-.4.22-.98.32-1.46.58-1.88.74-1.2.9-2.66,1.42-3.96l-.02.02Z"/>
        <path class="cls-1" d="m426.54,556.61c-5.62-7.23-9.41-15.89-10.85-24.94-1.14,1.58-1.76,3.46-2.24,5.34-1.12,4.24-1.66,8.81-.3,12.97,0,.06.04.12.1.12s.06-.12,0-.1c4.1,2.6,8.75,4.9,13.29,6.61h0Z"/>
      </g>
    </g>
  </g>
</svg>