<?xml version="1.0" encoding="UTF-8"?>
<svg id="Layer_2" data-name="Layer 2" xmlns="http://www.w3.org/2000/svg" viewBox="0 0 450.37 426.82">
  <defs>
    <style>
      .cls-1 {
        fill: #fff;
      }

      .cls-2 {
        fill: #5880a5;
      }

      .cls-3 {
        fill: #d6d6d6;
      }

      .cls-4 {
        fill: none;
        stroke: #000;
        stroke-miterlimit: 10;
        stroke-width: 2px;
      }
    </style>
  </defs>
  <g id="Layer_1-2" data-name="Layer 1">
    <g>
      <path class="cls-2" d="m85.31,159.17c-20.95,45.13-26.54,96.27-22.67,145.87,1.87,23.87,6.29,48.64,20.73,67.75,12.41,16.42,31.05,27.01,50.07,34.9,61.43,25.46,134.07,26.03,193.26-4.27,12.28-6.29,24.06-13.94,33.28-24.19,14.3-15.9,21.49-36.98,25.59-57.96,11.99-61.39.12-125.84-25.32-182.98-6.91-15.52-14.91-30.76-26.05-43.59-25.75-29.64-66.64-43.49-105.87-42.04-23.48.87-48.93,9.06-68.91,21.32-20.99,12.88-39.06,30.28-53.51,50.16-7.98,10.97-14.88,22.73-20.59,35.04Z"/>
      <path class="cls-1" d="m114.48,345.36c1.47-6.96,3.56-13.88,7.23-19.98,5.79-9.62,15.14-16.58,24.87-22.19,28.71-16.56,62.05-23.33,95.06-26.29,8.3-.74,16.65-1.26,24.97-.88,23.16,1.06,45.95,9.28,64.46,23.25,6.86,5.17,13.22,11.23,17.47,18.69,6.16,10.83,7.37,23.68,10.81,35.66,1.43,4.97,3.27,9.96,3.05,15.12-.47,11.02-10.23,18.85-19.04,25.12-38.05,27.05-81.83,32.43-81.83,32.43-17.34,0-30.99,1.19-51,0-6.04-.36-21.45-1.41-41-5-14.87-2.73-23.59-5.36-32-9-19.33-8.36-23.09-15.98-24-18-1.53-3.42-1.6-7.99-1.73-17.14-.15-10.18.12-19.69,2.68-31.79Z"/>
      <circle cx="173.04" cy="205.79" r="12.5"/>
      <circle cx="292.04" cy="205.79" r="12.5"/>
      <path class="cls-3" d="m387.57,280.02c-.35,2.74-.77,5.58.1,8.2,1.88,5.65,8.88,8.04,11.6,13.34,13.62-5.71,26.79-13.26,36.62-24.28s16-25.92,14.15-40.58c-.49-3.89-1.59-7.82-4-10.91-3.25-4.17-8.54-6.33-13.79-6.91s-10.54.24-15.76,1.07c-7.69,1.21-15.38,2.42-23.07,3.64-9.97,1.57-7.58,3.82-6.24,12.87,2.19,14.86.39,28.78.39,43.57Z"/>
      <path class="cls-3" d="m62.8,279.67c.35,2.74.77,5.58-.1,8.2-1.88,5.65-8.88,8.04-11.6,13.34-13.62-5.71-26.79-13.26-36.62-24.28S-1.53,251.01.33,236.36c.49-3.89,1.59-7.82,4-10.91,3.25-4.17,8.54-6.33,13.79-6.91,5.25-.58,10.54.24,15.76,1.07,7.69,1.21,15.38,2.42,23.07,3.64,9.97,1.57,7.58,3.82,6.24,12.87-2.19,14.86-.39,28.78-.39,43.57Z"/>
      <path class="cls-4" d="m199.56,245.76c3.64,4.38,8.76,7.5,14.31,8.74,3.58.8,7.28.82,10.95.73,7.33-.19,14.65-.85,21.89-1.99,8.41-1.32,17.48-3.75,22.41-10.69"/>
      <path class="cls-2" d="m213.47,19.33c3.33,4.93,4.39,11.33,2.84,17.07-1.16,4.3-3.66,8.11-5.24,12.27s-2.12,9.18.46,12.81c1.87,2.62,5.02,4.01,8.14,4.8,6.02,1.51,12.33,1.2,18.53.88,3.04-.16,6.13-.33,8.98-1.37s5.49-3.12,6.45-6.01c.79-2.38.37-4.98-.06-7.45-1.61-9.25-3.27-18.65-7.45-27.06-4.18-8.41-11.31-15.83-20.43-18.09-1.69-.42-3.47-.66-5.18-.33-3.18.61-9.68,1.68-11.02,4.79-1.93,4.51,1.41,3.87,3.98,7.68Z"/>
      <path class="cls-1" d="m199.13,1.2c-6.38,2.22-12.48,5.84-16.43,11.33s-5.43,13.02-2.62,19.17c.55,1.21,1.28,2.37,2.3,3.22,1.02.84,2.28,1.34,3.51,1.81,4.71,1.82,9.64,3.67,14.66,3.12,3.47-.38,6.73-1.89,9.68-3.76,4.67-2.96,8.95-7.28,9.81-12.74.65-4.14-.75-8.31-2.2-12.24-3.45-9.34-8.93-13.31-18.7-9.91Z"/>
      <path class="cls-1" d="m257.49,249.33c.95-3.96,1.63-7.99,2.02-12.05,1.76,2.66,3.22,5.52,4.35,8.5.05.12.66.24.55.17s-.25.02-.35.11c-1.85,1.58-4.16,2.86-6.56,3.28Z"/>
      <path class="cls-1" d="m218.79,253.91c-.49-2.91-.35-5.92.39-8.78,1.18,3.28,2.81,6.39,4.81,9.24-.33-.03-.83-.07-1.45-.08-.97-.02-1.33.05-2,0-.42-.03-1.03-.12-1.75-.38Z"/>
      <path class="cls-1" d="m245.54,249.29c.92-2.32,1.5-6.05,2-6,.16.02.15.42.51,1.37.25.67.42.78,1.01,2,.48.99.96,1.99,1.44,2.98.24.5.49,1.01.64,1.55.01.04.02.08,0,.11-.02.02-.04.02-.06.03-1.32.32-2.65.59-3.98.8-.67.11-1.34.2-2.01.27-.24.03-.62.17-.54-.2.11-.49.16-.73.29-.94.37-.6.45-1.33.71-1.98Z"/>
      <path class="cls-1" d="m212.84,253.38c-2.81-3.61-4.7-7.94-5.42-12.46-.57.79-.88,1.73-1.12,2.67-.56,2.12-.83,4.4-.15,6.48,0,.03.02.06.05.06s.03-.06,0-.05c2.05,1.3,4.37,2.45,6.64,3.3Z"/>
    </g>
  </g>
</svg>