<svg xmlns="http://www.w3.org/2000/svg" fill="none" viewBox="0 0 20 20"><path fill="#fff" d="M16 7h-2.5c-.827 0-1.5-.673-1.5-1.5V2H4v16h12V7z"/><path fill="#fff" d="M16 6v-.293l-3-3V5.5c0 .275.225.5.5.5H16z"/><path fill="#605E5C" fill-rule="evenodd" d="M16.707 5 13 1.293A1 1 0 0 0 12.293 1H4a1 1 0 0 0-1 1v16a1 1 0 0 0 1 1h12a1 1 0 0 0 1-1V5.707A1 1 0 0 0 16.707 5zM16 5.707V6h-2.5a.501.501 0 0 1-.5-.5V2.707l3 3zM4 2.2v15.6c0 .11.09.2.2.2h11.6a.2.2 0 0 0 .2-.2V7h-2.5A1.5 1.5 0 0 1 12 5.5V2H4.2a.2.2 0 0 0-.2.2z" clip-rule="evenodd" opacity=".64"/><path fill="#C8C6C4" d="M7.5 9a.5.5 0 0 0 0 1V9zm5 1a.5.5 0 0 0 0-1v1zm-5.5.5a.5.5 0 0 0-1 0h1zm-1 4a.5.5 0 0 0 1 0H6zM7.5 10h5V9h-5v1zm-1.5.5v4h1v-4H6z"/><path fill="#0078D7" d="M6.5 11a1.5 1.5 0 1 0 0-3 1.5 1.5 0 0 0 0 3zm3.734 1.011 4.654 1.746a.173.173 0 0 1-.019.33l-2.226.556-.557 2.226a.173.173 0 0 1-.33.02l-1.745-4.655a.173.173 0 0 1 .223-.223zM5.5 14.5V14H5v.5h.5zm2 0H8V14h-.5v.5zm0 2v.5H8v-.5h-.5zm-2 0H5v.5h.5v-.5zm7-8V8H12v.5h.5zm2 0h.5V8h-.5v.5zm0 2v.5h.5v-.5h-.5zm-2 0H12v.5h.5v-.5zm-7 4.5h2v-1h-2v1zm1.5-.5v2h1v-2H7zm.5 1.5h-2v1h2v-1zm-1.5.5v-2H5v2h1zM12.5 9h2V8h-2v1zm1.5-.5v2h1v-2h-1zm.5 1.5h-2v1h2v-1zm-1.5.5v-2h-1v2h1z"/></svg>