<svg xmlns="http://www.w3.org/2000/svg" fill="none" viewBox="0 0 96 96"><path fill="#FFB900" d="m45 24-3.95-3.95A7 7 0 0 0 36.1 18H10a4 4 0 0 0-4 4v52a4 4 0 0 0 4 4h76a4 4 0 0 0 4-4V28a4 4 0 0 0-4-4H45z"/><path fill="#FFD75E" d="m45 24-3.95 3.95A7 7 0 0 1 36.1 30H6v44a4 4 0 0 0 4 4h76a4 4 0 0 0 4-4V28a4 4 0 0 0-4-4H45z"/><path fill="url(#a)" d="m45 24-3.95 3.95A7 7 0 0 1 36.1 30H6v44a4 4 0 0 0 4 4h76a4 4 0 0 0 4-4V28a4 4 0 0 0-4-4H45z"/><path fill="#E67628" d="M10 78h76c1.309 0 2.47-.628 3.2-1.6l-.355.178a3.996 3.996 0 0 1-1.79.422H8.948c-.62 0-1.23-.144-1.785-.42l-.364-.182A3.994 3.994 0 0 0 9.999 78z"/><path fill="#fff" d="M41.697 28.803 46.5 24H45l-3.95 3.95A7 7 0 0 1 36.1 30H6v1h30.393a7.5 7.5 0 0 0 5.304-2.197z" opacity=".4"/><path fill="#BF5712" d="M71.46 63.99a3.503 3.503 0 0 0 3.262-2.13 3.492 3.492 0 0 0-2.524-4.79 3.505 3.505 0 0 0-3.605 1.48 3.492 3.492 0 0 0 .418 4.403 3.502 3.502 0 0 0 2.449 1.038zm0-5.992a2.503 2.503 0 0 1 2.338 1.514 2.493 2.493 0 0 1-1.795 3.429 2.503 2.503 0 0 1-2.579-1.055 2.494 2.494 0 0 1 2.036-3.888zm8.07 5.992a2.503 2.503 0 0 0 2.288-1.561 2.493 2.493 0 0 0-1.841-3.386 2.503 2.503 0 0 0-2.558 1.067 2.494 2.494 0 0 0 1.145 3.7c.307.123.635.185.966.18zm0-3.994a1.502 1.502 0 0 1 1.364.945 1.495 1.495 0 0 1-1.112 2.024A1.502 1.502 0 0 1 78 61.494a1.496 1.496 0 0 1 1.53-1.498zm-4.7 4.994h-6.66A2.091 2.091 0 0 0 66 66.987v1.178c.049.892.43 1.733 1.07 2.357a6.001 6.001 0 0 0 4.43 1.458c5.44 0 5.5-3.775 5.5-3.815v-1.178a2.086 2.086 0 0 0-2.17-1.997zM76 68.165c0 .12-.09 2.817-4.5 2.817S67 68.285 67 68.165v-1.178a1.088 1.088 0 0 1 1.17-.999h6.66a1.09 1.09 0 0 1 1.17.999v1.178zm6.17-3.175h-5c.27.291.483.63.63.998h4.36a.79.79 0 0 1 .83.75v.998c0 .1-.08 2.267-3.5 2.267a5.396 5.396 0 0 1-1.85-.29 4.82 4.82 0 0 1-.48.88 6.284 6.284 0 0 0 2.34.389c4.5 0 4.5-3.226 4.5-3.256v-.999a1.797 1.797 0 0 0-1.83-1.737z"/><defs><linearGradient id="a" x1="6" x2="6" y1="24" y2="78" gradientUnits="userSpaceOnUse"><stop stop-color="#fff" stop-opacity=".01"/><stop offset=".999" stop-color="#FFD75E" stop-opacity=".3"/></linearGradient></defs></svg>